<?xml version="1.0" encoding="utf-8"?>
<!-- Generated by IcoMoon.io -->
<!DOCTYPE svg PUBLIC "-//W3C//DTD SVG 1.1//EN" "http://www.w3.org/Graphics/SVG/1.1/DTD/svg11.dtd">
<svg version="1.1" xmlns="http://www.w3.org/2000/svg" xmlns:xlink="http://www.w3.org/1999/xlink" width="512" height="512" viewBox="0 0 512 512">
<g>
</g>
	<path d="M20.921 53.258h470.159v338.524h-222.587c0-1.741-2.375-2.877-4.639-2.877h-18.576c-2.284 0-4.035 1.137-4.598 2.877h-219.761v-338.524zM207.012 203.97c-20.839 0-38.215 16.804-38.215 37.673v114.237h20.255v-95.099h20.285v95.099h93.962v-95.099h20.275v95.099h19.108v-114.238c0-20.869-16.784-37.673-37.673-37.673h-97.997zM255.734 102.513c-24.934 0-45.23 20.306-45.23 45.199 0 24.945 20.296 45.25 45.23 45.25 24.914 0 45.22-20.306 45.22-45.25 0-24.883-20.316-45.2-45.22-45.2v0zM472.555 307.139v8.141h15.606v-8.141h-15.606zM472.555 290.345v8.12h15.606v-8.12h-15.606zM472.555 275.262v8.12h15.606v-8.12h-15.606zM472.555 259.021v8.11h15.606v-8.11h-15.606zM41.216 71.793v301.445h429.619v-301.445h-429.619zM197.775 417.3h39.404v0.563c0 1.782 2.918 4.075 5.806 4.075h23.757c2.898 0 5.786-2.304 5.786-4.075v-0.563h41.697l16.313 28.18h-149.002l16.24-28.18zM245.268 388.905c-2.284 0-4.598 1.741-4.598 3.481v22.62c0 1.741 2.314 2.857 4.598 2.857h18.576c2.887 0 4.639-1.116 4.639-2.857v-22.62c0-1.741-1.751-3.481-4.639-3.481h-18.576zM53.975 82.811v279.409h405.248v-279.409h-405.248z" fill="#000000" />
	<path d="M181.074 450.478h149.637v8.264h-149.637v-8.264z" fill="#000000" />
</svg>
